<svg width="33" height="33" viewBox="0 0 33 33" fill="none" xmlns="http://www.w3.org/2000/svg">
<circle cx="16.5" cy="16.5" r="16.5" fill="#1A99E4"/>
<path d="M22.7999 7H10.2001C8.43214 7 7 8.44942 7 10.2387V19.74C7 21.5293 8.43214 22.9787 10.2001 22.9787H10.7444V26.3933C10.7444 26.9324 11.3891 27.202 11.7635 26.823L15.562 22.9787H22.7999C24.5679 22.9787 26 21.5293 26 19.74V10.2387C26 8.44942 24.5679 7 22.7999 7Z" fill="white"/>
<path d="M15.6389 16.6067H17.3306L17.5639 11.0183H15.4056L15.6389 16.6067ZM17.6922 18.52C17.6922 17.9017 17.2139 17.4233 16.5139 17.4233C15.8022 17.4233 15.3239 17.9017 15.3239 18.52C15.3239 19.115 15.8022 19.5933 16.5139 19.5933C17.2139 19.5933 17.6922 19.115 17.6922 18.52Z" fill="#1A99E4"/>
</svg>
