<svg width="33" height="33" viewBox="0 0 33 33" fill="none" xmlns="http://www.w3.org/2000/svg">
<circle cx="16.5" cy="16.5" r="16.5" fill="#1A99E4"/>
<path d="M24.637 20.7178C23.6596 20.7178 22.8686 21.5087 22.8686 22.4862C22.8686 23.4636 23.6596 24.2546 24.637 24.2546C25.6145 24.2546 26.4054 23.4636 26.4054 22.4862C26.4054 21.5087 25.6145 20.7178 24.637 20.7178ZM24.637 23.1635C24.2657 23.1635 23.9597 22.8575 23.9597 22.4862C23.9597 22.1149 24.2657 21.8088 24.637 21.8088C25.0083 21.8088 25.3144 22.1149 25.3144 22.4862C25.3144 22.8575 25.0083 23.1635 24.637 23.1635ZM27.8471 20.8189H27.4646V19.2121C27.4646 18.6463 27.0423 18.141 26.4699 18.141H24.6337C24.5951 18.141 24.5496 18.1361 24.5239 18.1105L21.6623 15.3251C21.5337 15.1965 21.3772 15.0871 21.1908 15.0807H19.125V22.1196H22.1854C22.2561 22.1196 22.3027 22.0496 22.3156 21.9853C22.5085 20.8793 23.473 20.0369 24.6369 20.0369C25.8009 20.0369 26.7655 20.8793 26.9583 21.9853C26.9711 22.056 27.0112 22.1196 27.0819 22.1196H27.3114C27.678 22.1196 28 21.8053 28 21.4452V20.9693C28.0002 20.8985 27.9243 20.8189 27.8471 20.8189ZM23.18 18.1409H20.0432C19.966 18.1409 19.8901 18.0651 19.8901 17.9879V15.9987C19.8901 15.9215 19.966 15.8457 20.0432 15.8457H21.0378C21.0764 15.8457 21.1544 15.9037 21.1865 15.9295L23.2571 17.9111C23.3343 18.0075 23.3023 18.1409 23.18 18.1409ZM13.5045 20.7166C12.5271 20.7166 11.7361 21.5076 11.7361 22.485C11.7361 23.4625 12.5271 24.2534 13.5045 24.2534C14.4819 24.2534 15.2729 23.4625 15.2729 22.485C15.2729 21.5076 14.4819 20.7166 13.5045 20.7166ZM13.5045 23.1623C13.1332 23.1623 12.8271 22.8562 12.8271 22.4849C12.8271 22.1136 13.1332 21.8076 13.5045 21.8076C13.8758 21.8076 14.1819 22.1136 14.1819 22.4849C14.1819 22.8562 13.8758 23.1623 13.5045 23.1623ZM18.5895 17.43V22.1195H16.2119H15.9675C15.8968 22.101 15.8389 22.056 15.826 21.9852C15.6331 20.8792 14.6686 20.1121 13.5047 20.1121C12.3408 20.1121 11.3762 20.8791 11.1833 21.9852C11.1705 22.0495 11.1126 22.1009 11.0419 22.1195H9.3318C8.98897 22.101 8.71973 21.823 8.71973 21.4802V19.3651H14.5534C14.2719 19.0355 14.1017 18.6083 14.1017 18.1409C14.1017 17.7071 14.2484 17.3078 14.4945 16.9892C12.5456 14.5496 9.79014 11.1848 9.00259 10.044L8.54085 12.994L9.01367 13.0557L8.72514 15.2697L8.3789 15.2245C8.37069 15.2767 8.36275 15.3274 8.35524 15.3749C8.98705 15.6478 9.41038 16.2681 9.41038 16.968C9.41038 17.0579 9.40304 17.1486 9.3889 17.2403C9.25297 18.1003 8.51396 18.7134 7.66861 18.7134C7.57877 18.7134 7.48798 18.7061 7.39719 18.6924H7.39684C6.71666 18.5848 6.1898 18.0976 6 17.4813L6.82885 17.2272C6.92514 17.5384 7.1888 17.7838 7.53224 17.8376H7.53181C7.57834 17.8449 7.62391 17.848 7.66957 17.848C8.09246 17.848 8.46786 17.5387 8.53447 17.1063C8.54224 17.0594 8.54495 17.0137 8.54495 16.9686C8.54495 16.5457 8.23564 16.1707 7.80367 16.1037C7.68912 16.0859 7.58838 16.0247 7.52037 15.9312C7.45288 15.8377 7.42504 15.7232 7.44284 15.6092C7.44284 15.6087 7.47846 15.3841 7.52054 15.1129L7.2541 15.0781L7.54263 12.8641L8.0255 12.9271L8.57507 9.41875C8.52897 9.34987 8.49388 9.29609 8.47703 9.26728C8.71973 9.2293 10.3962 8 10.3962 8C12.0253 9.95688 16.8697 15.4799 18.5895 17.43Z" fill="white"/>
</svg>
