<svg width="34" height="34" viewBox="0 0 34 34" fill="none" xmlns="http://www.w3.org/2000/svg">
<path fill-rule="evenodd" clip-rule="evenodd" d="M19.8463 7.33154C19.1988 6.95938 18.4013 6.96341 17.7575 7.34209L12.2459 10.5842L18.7989 14.516L25.506 10.5843L19.8463 7.33154ZM26.2556 11.8965L19.55 15.8273V23.074L25.1974 19.8932C25.8511 19.5251 26.2556 18.8331 26.2556 18.0829V11.8965ZM18.0389 23.059V15.8222L11.5222 11.9122V18.1018C11.5222 18.8446 11.9188 19.5309 12.5623 19.9019L18.0389 23.059ZM16.9914 6.03962C18.1033 5.38552 19.4808 5.37857 20.5993 6.02139L27.3876 9.92271C27.6221 10.0575 27.7667 10.3073 27.7667 10.5778V18.0829C27.7667 19.3787 27.0681 20.574 25.939 21.2099L19.1652 25.025C18.9327 25.156 18.6483 25.1545 18.4171 25.0213L11.8076 21.2111C10.696 20.5703 10.0111 19.3849 10.0111 18.1018V10.5778C10.0111 10.31 10.1528 10.0623 10.3836 9.92655L16.9914 6.03962Z" fill="#006EEE"/>
<path d="M9.82105 16.1258L5.28888 25.5515C10.0262 28.5371 14.4405 26.7955 16.0555 25.5515L11.5234 16.1258C11.1803 15.4122 10.1642 15.4122 9.82105 16.1258Z" fill="#D1E2FD"/>
<path fill-rule="evenodd" clip-rule="evenodd" d="M10.8425 16.4532C10.7738 16.3105 10.5706 16.3105 10.502 16.4532L6.27062 25.2533C10.0138 27.3068 13.4365 26.2856 15.0925 25.2922L10.8425 16.4532ZM9.14013 15.7983C9.75772 14.5139 11.5867 14.5139 12.2043 15.7983L16.7365 25.2241C16.8912 25.5459 16.7995 25.9322 16.5166 26.1501C14.7192 27.5346 9.95784 29.3871 4.88604 26.1907C4.56119 25.986 4.44156 25.5702 4.60796 25.2241L9.14013 15.7983Z" fill="#006EEE"/>
</svg>
