<svg width="34" height="34" viewBox="0 0 34 34" fill="none" xmlns="http://www.w3.org/2000/svg">
<path d="M6.61111 7.93333L8.95154 9.16808C9.22322 9.31141 9.52575 9.38632 9.83293 9.38632H25.9205C26.1421 9.38632 26.3621 9.42533 26.5702 9.50157L27.5778 9.87065V25.8778C27.5778 26.3994 27.1549 26.8222 26.6333 26.8222H12.2778C9.14817 26.8222 6.61111 24.2852 6.61111 21.1556V7.93333Z" fill="#D1E2FD"/>
<path fill-rule="evenodd" clip-rule="evenodd" d="M27.5778 9.87065L26.5702 9.50157C26.3621 9.42533 26.1421 9.38632 25.9205 9.38632H9.83293C9.52575 9.38632 9.22322 9.31141 8.95154 9.16808L6.61111 7.93333V21.1556C6.61111 24.2852 9.14817 26.8222 12.2778 26.8222H26.6333C27.1549 26.8222 27.5778 26.3994 27.5778 25.8778V9.87065ZM26.0667 25.3111V10.9264L26.0504 10.9205C26.0088 10.9052 25.9648 10.8974 25.9205 10.8974H9.83293C9.28002 10.8974 8.73545 10.7626 8.24642 10.5046L8.12223 10.4391V21.1556C8.12223 23.4506 9.98273 25.3111 12.2778 25.3111H26.0667Z" fill="#006EEE"/>
<path fill-rule="evenodd" clip-rule="evenodd" d="M26.9403 9.09351C26.1596 8.46077 26.1511 7.39832 26.9217 6.75648L27.2416 6.48995C27.8498 5.98337 27.4312 5.1 26.583 5.1H9.91821C8.09175 5.1 6.61111 6.36853 6.61111 7.93333C6.61111 9.49814 8.09175 10.7667 9.91821 10.7667H26.631C27.4855 10.7667 27.9011 9.87215 27.2803 9.36905L26.9403 9.09351ZM25.1452 6.61111H9.91821C8.69868 6.61111 8.12223 7.41384 8.12223 7.93333C8.12223 8.45283 8.69868 9.25556 9.91821 9.25556H25.1618C24.7366 8.42321 24.7295 7.44913 25.1452 6.61111Z" fill="#006EEE"/>
<path fill-rule="evenodd" clip-rule="evenodd" d="M10.5778 14.3556C10.5778 13.9383 10.916 13.6 11.3333 13.6H23.0444C23.4617 13.6 23.8 13.9383 23.8 14.3556C23.8 14.7728 23.4617 15.1111 23.0444 15.1111H11.3333C10.916 15.1111 10.5778 14.7728 10.5778 14.3556Z" fill="#006EEE"/>
</svg>
