<svg width="22" height="22" viewBox="0 0 22 22" fill="none" xmlns="http://www.w3.org/2000/svg">
<path d="M8.54706 21H4.04118C3.98595 21 3.94118 20.9552 3.94118 20.9V11.725C3.94118 11.6698 3.89641 11.625 3.84118 11.625H1.23144C1.14381 11.625 1.09856 11.5203 1.15862 11.4565L10.9272 1.07737C10.9667 1.03542 11.0333 1.03542 11.0728 1.07737L20.8414 11.4565C20.9014 11.5203 20.8562 11.625 20.7686 11.625H18.1588C18.1036 11.625 18.0588 11.6698 18.0588 11.725V20.9C18.0588 20.9552 18.0141 21 17.9588 21H13.4529C13.3977 21 13.3529 20.9552 13.3529 20.9V14.85C13.3529 14.7948 13.3082 14.75 13.2529 14.75H8.74706C8.69183 14.75 8.64706 14.7948 8.64706 14.85V17.25V20.9C8.64706 20.9552 8.60229 21 8.54706 21Z" stroke="#9E9E9E" stroke-width="1.5"/>
</svg>
