<svg width="19" height="20" viewBox="0 0 19 20" fill="none" xmlns="http://www.w3.org/2000/svg">
<path d="M18.1389 16.5564H0.781233C0.771581 16.5512 0.761154 16.5453 0.750022 16.5388L0.750004 15.3192C0.968307 15.0372 1.1848 14.8879 1.44531 14.7083C1.52822 14.6511 1.6156 14.5908 1.70891 14.5222C1.92802 14.3612 2.18534 14.142 2.37222 13.7985C2.55924 13.4548 2.63824 13.0575 2.63824 12.5926V6.92411C2.63824 4.18093 4.64278 1.79525 7.48325 1.01768C7.49065 1.01566 7.50033 1.01291 7.51223 1.00953C7.69821 0.956718 8.42614 0.75 9.44444 0.75C9.98067 0.75 10.4721 0.816566 10.8314 0.8842C11.0099 0.917817 11.1531 0.95118 11.2495 0.975519C11.2977 0.987672 11.334 0.997526 11.3571 1.00397L11.3814 1.01091L11.3847 1.01186L11.3849 1.01193L11.3851 1.01199L11.3855 1.0121L11.3858 1.01219L11.3859 1.01223L11.3947 1.01491L11.4049 1.01769C14.2454 1.79525 16.2499 4.18094 16.2499 6.92411V12.5926C16.2499 13.0575 16.3289 13.4548 16.5159 13.7985C16.7027 14.142 16.9601 14.3612 17.1792 14.5223C17.2727 14.5909 17.3602 14.6513 17.4432 14.7085C17.7037 14.8882 17.9203 15.0375 18.1389 15.3194L18.1389 16.5564ZM9.44442 19.25C8.98265 19.25 8.52943 19.0664 8.1509 18.7298H10.738C10.3594 19.0664 9.90619 19.25 9.44442 19.25Z" fill="#1A99E4" stroke="#1A99E4" stroke-width="1.5"/>
</svg>
