<svg width="19" height="20" viewBox="0 0 19 20" fill="none" xmlns="http://www.w3.org/2000/svg">
<mask id="path-1-inside-1_443_640" fill="white">
<path d="M6.74603 17.9798C7.22933 19.1697 8.25248 20 9.44442 20C10.6364 20 11.6596 19.1697 12.1429 17.9798H6.74603Z"/>
<path d="M18.8889 16.9348L18.8889 15.0809C18.0329 13.7747 16.9999 14.1153 16.9999 12.5926V6.92411C16.9999 3.7946 14.7202 1.14764 11.6029 0.294299C11.6029 0.294299 10.635 0 9.44444 0C8.25384 0 7.41671 0.258309 7.28523 0.294299C4.16795 1.14764 1.88824 3.7946 1.88824 6.92411V12.5926C1.88824 14.1153 0.854888 13.7746 0 15.0809L2.85487e-05 16.9348C2.85487e-05 16.9348 0.480347 17.3064 0.67464 17.3064H18.2143C18.4086 17.3064 18.7928 17.089 18.8889 16.9348Z"/>
</mask>
<path d="M6.74603 17.9798V16.4798H4.51777L5.35629 18.5443L6.74603 17.9798ZM12.1429 17.9798L13.5326 18.5443L14.3711 16.4798H12.1429V17.9798ZM18.8889 16.9348L20.1621 17.7278L20.3889 17.3637V16.9348L18.8889 16.9348ZM18.8889 15.0809L20.3889 15.0809V14.6332L20.1435 14.2587L18.8889 15.0809ZM11.6029 0.294299L11.1665 1.72942L11.1866 1.73553L11.2068 1.74107L11.6029 0.294299ZM7.28523 0.294299L7.68128 1.74107L7.28523 0.294299ZM0 15.0809L-1.25509 14.2594L-1.50001 14.6336L-1.5 15.0809L0 15.0809ZM2.85487e-05 16.9348L-1.49997 16.9348L-1.49996 17.6707L-0.917888 18.1211L2.85487e-05 16.9348ZM5.35629 18.5443C6.01136 20.1571 7.50141 21.5 9.44442 21.5V18.5C9.00355 18.5 8.4473 18.1823 8.13577 17.4153L5.35629 18.5443ZM9.44442 21.5C11.3874 21.5 12.8775 20.1571 13.5326 18.5443L10.7531 17.4153C10.4416 18.1823 9.88531 18.5 9.44442 18.5V21.5ZM12.1429 16.4798H6.74603V19.4798H12.1429V16.4798ZM20.3889 16.9348L20.3889 15.0809L17.3889 15.0809L17.3889 16.9348L20.3889 16.9348ZM20.1435 14.2587C19.5244 13.314 18.725 12.866 18.5118 12.7093C18.4023 12.6288 18.4493 12.6441 18.4923 12.7233C18.5357 12.8029 18.4999 12.8049 18.4999 12.5926H15.4999C15.4999 13.1417 15.5933 13.6721 15.8571 14.1569C16.1206 14.6413 16.4793 14.9386 16.7351 15.1266C17.2523 15.5067 17.3974 15.5416 17.6343 15.903L20.1435 14.2587ZM18.4999 12.5926V6.92411H15.4999V12.5926H18.4999ZM18.4999 6.92411C18.4999 3.02193 15.6699 -0.147589 11.9989 -1.15247L11.2068 1.74107C13.7706 2.44286 15.4999 4.56727 15.4999 6.92411H18.4999ZM11.6029 0.294299C12.0393 -1.14082 12.039 -1.14089 12.0388 -1.14097C12.0387 -1.141 12.0384 -1.14107 12.0383 -1.14113C12.0379 -1.14123 12.0375 -1.14134 12.0372 -1.14146C12.0364 -1.14169 12.0356 -1.14194 12.0347 -1.1422C12.0329 -1.14274 12.0309 -1.14334 12.0287 -1.14401C12.0242 -1.14535 12.0187 -1.14697 12.0123 -1.14884C11.9995 -1.15258 11.9829 -1.15734 11.9628 -1.16297C11.9225 -1.17423 11.8677 -1.18902 11.8001 -1.20609C11.665 -1.24019 11.4767 -1.28382 11.2477 -1.32695C10.7938 -1.41241 10.1579 -1.5 9.44444 -1.5V1.5C9.92161 1.5 10.3649 1.55956 10.6926 1.62125C10.8543 1.6517 10.9825 1.68164 11.066 1.70272C11.1077 1.71323 11.1379 1.72145 11.1552 1.72628C11.1638 1.72869 11.1692 1.73025 11.1711 1.73083C11.1721 1.73111 11.1722 1.73115 11.1715 1.73092C11.1711 1.7308 11.1705 1.73062 11.1697 1.73037C11.1692 1.73025 11.1688 1.73011 11.1682 1.72995C11.168 1.72987 11.1677 1.72978 11.1674 1.7297C11.1673 1.72965 11.167 1.72958 11.167 1.72956C11.1667 1.72949 11.1665 1.72942 11.6029 0.294299ZM9.44444 -1.5C8.74178 -1.5 8.14252 -1.42389 7.69561 -1.34147C7.47153 -1.30014 7.28497 -1.25708 7.14229 -1.22094C7.00979 -1.18737 6.88685 -1.15183 6.88919 -1.15247L7.68128 1.74107C7.79583 1.70971 8.46817 1.5 9.44444 1.5V-1.5ZM6.88919 -1.15247C3.21828 -0.147585 0.388243 3.02193 0.388243 6.92411H3.38824C3.38824 4.56727 5.11761 2.44286 7.68128 1.74107L6.88919 -1.15247ZM0.388243 6.92411V12.5926H3.38824V6.92411H0.388243ZM0.388243 12.5926C0.388243 12.8048 0.3525 12.8028 0.395825 12.7232C0.438886 12.6441 0.485869 12.6288 0.37629 12.7093C0.162876 12.8662 -0.636464 13.3142 -1.25509 14.2594L1.25509 15.9023C1.49135 15.5413 1.63613 15.5065 2.15312 15.1265C2.40874 14.9386 2.76749 14.6413 3.03102 14.157C3.29482 13.6722 3.38824 13.1417 3.38824 12.5926H0.388243ZM-1.5 15.0809L-1.49997 16.9348L1.50003 16.9347L1.5 15.0808L-1.5 15.0809ZM2.85487e-05 16.9348C-0.917888 18.1211 -0.917773 18.1212 -0.917656 18.1213C-0.917614 18.1213 -0.917494 18.1214 -0.917411 18.1215C-0.917244 18.1216 -0.917069 18.1217 -0.916887 18.1219C-0.916522 18.1222 -0.916126 18.1225 -0.915699 18.1228C-0.914845 18.1235 -0.913867 18.1242 -0.912769 18.1251C-0.910573 18.1267 -0.907892 18.1288 -0.90475 18.1312C-0.898472 18.136 -0.890319 18.1422 -0.88049 18.1496C-0.860901 18.1643 -0.834267 18.1841 -0.802228 18.2073C-0.739535 18.2528 -0.649654 18.3161 -0.547296 18.3819C-0.4502 18.4444 -0.314129 18.5273 -0.163531 18.5998C-0.0757551 18.6421 0.258292 18.8064 0.67464 18.8064V15.8064C0.867804 15.8064 1.00515 15.8484 1.0474 15.8619C1.10231 15.8795 1.13465 15.8952 1.13806 15.8969C1.14395 15.8997 1.12351 15.8896 1.07624 15.8592C1.03424 15.8322 0.991895 15.8026 0.958456 15.7783C0.942429 15.7667 0.930021 15.7575 0.922583 15.7519C0.918899 15.7491 0.916543 15.7473 0.915691 15.7467C0.915267 15.7463 0.915228 15.7463 0.915594 15.7466C0.915777 15.7467 0.916063 15.747 0.916453 15.7473C0.916649 15.7474 0.916871 15.7476 0.917119 15.7478C0.917243 15.7479 0.917374 15.748 0.917512 15.7481C0.917581 15.7481 0.917689 15.7482 0.917724 15.7482C0.917834 15.7483 0.917945 15.7484 2.85487e-05 16.9348ZM0.67464 18.8064H18.2143V15.8064H0.67464V18.8064ZM18.2143 18.8064C18.5056 18.8064 18.749 18.7331 18.8855 18.6852C19.0434 18.6297 19.1903 18.5601 19.3176 18.4892C19.445 18.4184 19.5797 18.3313 19.7075 18.229C19.8148 18.1432 20.0075 17.976 20.1621 17.7278L17.6157 16.1417C17.6762 16.0446 17.7341 15.981 17.7635 15.9507C17.7959 15.9173 17.821 15.8964 17.833 15.8868C17.8556 15.8687 17.8642 15.8648 17.8592 15.8676C17.8542 15.8704 17.8626 15.8648 17.8908 15.8549C17.9058 15.8496 17.9369 15.8394 17.9823 15.8297C18.0242 15.8208 18.1054 15.8064 18.2143 15.8064V18.8064Z" fill="#9E9E9E" mask="url(#path-1-inside-1_443_640)"/>
</svg>
