<svg width="19" height="20" viewBox="0 0 19 20" fill="none" xmlns="http://www.w3.org/2000/svg">
<path fill-rule="evenodd" clip-rule="evenodd" d="M3.20012 0H15.7999C17.5678 0 19 1.44941 19 3.23872V12.74C19 14.5293 17.5678 15.9787 15.7999 15.9787H8.56196L4.76351 19.823C4.38907 20.2019 3.74441 19.9324 3.74441 19.3932V15.9787H3.20012C1.43214 15.9787 0 14.5293 0 12.74V3.23872C0 1.44941 1.43214 0 3.20012 0ZM3.75 4.375C3.75 4.02982 4.02982 3.75 4.375 3.75H14.375C14.7202 3.75 15 4.02982 15 4.375C15 4.72017 14.7202 5 14.375 5H4.375C4.02982 5 3.75 4.72017 3.75 4.375ZM4.31249 7.12493C4.00183 7.12493 3.74999 7.37677 3.74999 7.68743C3.74999 7.99809 4.00183 8.24993 4.31249 8.24993H12.1C12.4106 8.24993 12.6625 7.99809 12.6625 7.68743C12.6625 7.37677 12.4106 7.12493 12.1 7.12493H4.31249ZM3.74999 11.0625C3.74999 10.7519 4.00183 10.5 4.31249 10.5H10.8437C11.1544 10.5 11.4062 10.7519 11.4062 11.0625C11.4062 11.3732 11.1544 11.625 10.8437 11.625H4.31249C4.00183 11.625 3.74999 11.3732 3.74999 11.0625Z" fill="#1A99E4"/>
</svg>
