<svg width="20" height="20" viewBox="0 0 20 20" fill="none" xmlns="http://www.w3.org/2000/svg">
<path fill-rule="evenodd" clip-rule="evenodd" d="M20 10C20 15.5228 15.5228 20 10 20C4.47715 20 0 15.5228 0 10C0 4.47715 4.47715 0 10 0C15.5228 0 20 4.47715 20 10ZM10.5471 11.7034C10.5741 11.703 10.6012 11.7054 10.6279 11.7104C10.8826 11.7586 11.0556 12.0384 11.0143 12.3355C10.9695 12.6091 10.76 12.8035 10.5214 12.7931H5.93284L7.5963 14.5748C7.76644 14.7642 7.79505 15.0689 7.66405 15.2967C7.6517 15.3155 7.63831 15.3333 7.62397 15.3501C7.44174 15.5632 7.14589 15.5636 6.96316 15.3512L4.62684 12.6269L4.62648 12.6265C4.4441 12.4136 4.44426 12.0687 4.62684 11.856L6.96316 9.13177C6.97818 9.11492 6.99417 9.09925 7.01099 9.08488C7.21922 8.90711 7.51159 8.95982 7.66405 9.2026C7.79505 9.43043 7.76644 9.73512 7.5963 9.92453L5.93985 11.7034H10.5471ZM9.3721 7.22057C9.39881 7.21551 9.42588 7.21318 9.45292 7.21359H14.0601L12.4037 5.43467C12.2336 5.24526 12.205 4.94058 12.3359 4.71275C12.4884 4.46997 12.7808 4.41725 12.989 4.59503C13.0058 4.6094 13.0218 4.62506 13.0368 4.64192L15.3732 7.36615C15.5557 7.57881 15.5559 7.92377 15.3735 8.13667L15.3732 8.13709L13.0368 10.8613C12.8541 11.0738 12.5583 11.0733 12.376 10.8603C12.3617 10.8435 12.3483 10.8257 12.3359 10.8068C12.205 10.579 12.2336 10.2743 12.4037 10.0849L14.0672 8.30326H9.47865C9.23995 8.31361 9.03051 8.1192 8.98568 7.8456C8.94438 7.54858 9.11737 7.26875 9.3721 7.22057Z" fill="#1A99E4"/>
</svg>
