<svg width="20" height="20" viewBox="0 0 20 20" fill="none" xmlns="http://www.w3.org/2000/svg">
<circle cx="10" cy="10" r="9.25" stroke="#9E9E9E" stroke-width="1.5"/>
<path d="M6.05468 11.6534L7.63284 9.95855L7.63284 9.95855L7.63344 9.95789C7.81865 9.75172 7.84863 9.42337 7.70734 9.17763L7.70738 9.17761L7.70634 9.17596C7.53912 8.90968 7.21195 8.84748 6.97847 9.04681L6.97846 9.04682C6.9599 9.06268 6.94229 9.07993 6.92578 9.09846L6.92577 9.09845L6.92515 9.09918L4.58885 11.8234C4.58885 11.8234 4.58884 11.8234 4.58884 11.8234C4.39019 12.0548 4.39003 12.4274 4.58845 12.659L4.58852 12.6591L4.58883 12.6594L4.58888 12.6595L6.92515 15.3837L6.9252 15.3838C7.12793 15.6194 7.45977 15.6189 7.66191 15.3826L7.66193 15.3825C7.67764 15.3642 7.69229 15.3446 7.70579 15.3241L7.70586 15.3241L7.70734 15.3216C7.84864 15.0758 7.81865 14.7475 7.63344 14.5413L7.63345 14.5413L7.63279 14.5406L6.04788 12.8431H10.5202C10.7894 12.8541 11.0157 12.6357 11.0636 12.3435L11.0636 12.3435L11.0638 12.3423C11.1079 12.0254 10.9241 11.7155 10.6371 11.6612M10.6371 11.6612C10.6371 11.6612 10.6371 11.6612 10.6371 11.6612L10.6278 11.7104L10.6371 11.6612Z" fill="#9E9E9E" stroke="#9E9E9E" stroke-width="0.1" stroke-linejoin="round"/>
<path d="M13.9453 7.16365L12.3672 5.4688L12.3672 5.46881L12.3666 5.46814C12.1814 5.26197 12.1514 4.93362 12.2927 4.68789L12.2926 4.68787L12.2937 4.68622C12.4609 4.41993 12.7881 4.35773 13.0215 4.55706L13.0215 4.55707C13.0401 4.57293 13.0577 4.59019 13.0742 4.60871L13.0742 4.6087L13.0748 4.60943L15.4111 7.33364C15.4112 7.33364 15.4112 7.33365 15.4112 7.33366C15.6098 7.56504 15.61 7.93763 15.4115 8.16926L15.4115 8.16934L15.4112 8.1697L15.4111 8.16976L13.0748 10.894L13.0748 10.894C12.8721 11.1297 12.5402 11.1292 12.3381 10.8928L12.3381 10.8928C12.3224 10.8744 12.3077 10.8549 12.2942 10.8344L12.2941 10.8344L12.2927 10.8318C12.1514 10.5861 12.1814 10.2578 12.3666 10.0516L12.3665 10.0516L12.3672 10.0509L13.9521 8.35332H9.47975C9.21062 8.36437 8.98427 8.14593 8.93639 7.85374L8.93638 7.85375L8.93621 7.85255C8.89214 7.53564 9.07591 7.22578 9.36286 7.1715M9.36286 7.1715C9.36286 7.1715 9.36285 7.1715 9.36285 7.1715L9.37215 7.22063L9.36286 7.1715Z" fill="#9E9E9E" stroke="#9E9E9E" stroke-width="0.1" stroke-linejoin="round"/>
</svg>
