<svg width="32" height="32" viewBox="0 0 32 32" fill="none" xmlns="http://www.w3.org/2000/svg">
<path d="M30.1347 2.74932C30.0746 2.52095 29.9549 2.31264 29.7879 2.14564C29.6209 1.97865 29.4126 1.85897 29.1842 1.7988C26.4491 1.08839 23.5689 1.1649 20.8753 2.01954C18.1817 2.87418 15.7842 4.47218 13.959 6.62955L12.4724 8.39466L8.99932 7.55668C8.15498 7.26232 7.23263 7.28342 6.40263 7.61608C5.57263 7.94874 4.89102 8.5705 4.4837 9.36652L1.55011 14.5664C1.44732 14.7485 1.38882 14.9523 1.37935 15.1612C1.36987 15.3701 1.40967 15.5784 1.49555 15.7691C1.58142 15.9598 1.71096 16.1276 1.87368 16.2589C2.03641 16.3903 2.22776 16.4816 2.43227 16.5253L6.52927 17.4036C6.18221 18.46 5.9344 19.5466 5.78904 20.649C5.76269 20.8516 5.78321 21.0575 5.84902 21.2508C5.91482 21.4442 6.02416 21.6198 6.16859 21.7643L10.3021 25.8977C10.4258 26.0216 10.5728 26.1198 10.7345 26.1869C10.8963 26.2539 11.0696 26.2884 11.2447 26.2884C11.2831 26.2884 11.3216 26.2864 11.3606 26.2832C12.4877 26.1818 13.6012 25.9629 14.6827 25.6298L15.541 29.6341C15.5848 29.8385 15.6761 30.0298 15.8075 30.1925C15.9389 30.3551 16.1067 30.4846 16.2974 30.5705C16.4881 30.6564 16.6962 30.6962 16.9051 30.6868C17.114 30.6773 17.3178 30.6189 17.4999 30.5162L22.707 27.5794C23.4398 27.1341 24.0123 26.4675 24.3418 25.6758C24.6713 24.8841 24.7408 24.0082 24.5403 23.1744L23.6487 19.4958L25.2981 17.9791C27.4636 16.1589 29.0677 13.7614 29.9239 11.0653C30.7801 8.36915 30.8532 5.48535 30.1347 2.74932ZM4.763 14.2975L6.83787 10.6178C6.96674 10.368 7.18631 10.177 7.45154 10.0839C7.71677 9.9908 8.00757 10.0027 8.2643 10.1172L10.5542 10.6721L9.68751 11.7012C8.86585 12.6859 8.1552 13.7582 7.56842 14.8987L4.763 14.2975ZM21.39 25.2604L17.7689 27.3027L17.1962 24.6298C18.357 24.0509 19.4385 23.325 20.414 22.47L21.4054 21.5584L21.9433 23.7779C22.0131 24.052 21.9975 24.3408 21.8986 24.6057C21.7997 24.8707 21.6222 25.0991 21.39 25.2604ZM23.5423 15.9733L18.6295 20.4883C16.6849 22.17 14.2864 23.2389 11.7357 23.5606L8.52992 20.3548C8.96048 17.7975 10.0655 15.4013 11.7311 13.4135L13.9689 10.7566C14.0062 10.7176 14.041 10.6763 14.0731 10.6329L15.9863 8.36132C17.4009 6.69052 19.2336 5.42506 21.2973 4.69418C23.3609 3.9633 25.5815 3.79317 27.7324 4.20116C28.1503 6.35879 27.982 8.58899 27.245 10.6595C26.5081 12.7299 25.2294 14.5649 23.5423 15.9733ZM22.3116 7.75498C21.9161 7.75498 21.5294 7.87228 21.2005 8.09204C20.8716 8.3118 20.6152 8.62416 20.4639 8.98961C20.3125 9.35506 20.2729 9.7572 20.3501 10.1452C20.4272 10.5331 20.6177 10.8895 20.8974 11.1692C21.1771 11.4489 21.5335 11.6394 21.9215 11.7165C22.3094 11.7937 22.7115 11.7541 23.077 11.6027C23.4425 11.4514 23.7548 11.195 23.9746 10.8661C24.1943 10.5372 24.3116 10.1505 24.3116 9.75498C24.3116 9.49232 24.2599 9.23224 24.1594 8.98957C24.0589 8.74691 23.9116 8.52642 23.7259 8.3407C23.5401 8.15497 23.3196 8.00765 23.077 7.90715C22.8343 7.80665 22.5743 7.75496 22.3116 7.75498Z" fill="white"/>
</svg>
