<svg width="20" height="20" viewBox="0 0 20 20" fill="none" xmlns="http://www.w3.org/2000/svg">
<path d="M20 10C20 15.5228 15.5228 20 10 20C4.47715 20 0 15.5228 0 10C0 4.47715 4.47715 0 10 0C15.5228 0 20 4.47715 20 10Z" fill="#1A99E4"/>
<path fill-rule="evenodd" clip-rule="evenodd" d="M11.25 4.5C11.6642 4.5 12 4.83579 12 5.25V11.25C12 11.6642 11.6642 12 11.25 12H5.25C4.83579 12 4.5 11.6642 4.5 11.25C4.5 10.8358 4.83579 10.5 5.25 10.5H10.5V5.25C10.5 4.83579 10.8358 4.5 11.25 4.5Z" fill="white"/>
</svg>
