<svg width="20" height="20" viewBox="0 0 20 20" fill="none" xmlns="http://www.w3.org/2000/svg">
<path d="M20 10C20 15.5228 15.5228 20 10 20C4.47715 20 0 15.5228 0 10C0 4.47715 4.47715 0 10 0C15.5228 0 20 4.47715 20 10Z" fill="#B00020"/>
<path fill-rule="evenodd" clip-rule="evenodd" d="M11 4.25C11.4142 4.25 11.75 4.58579 11.75 5V11C11.75 11.4142 11.4142 11.75 11 11.75H5C4.58579 11.75 4.25 11.4142 4.25 11C4.25 10.5858 4.58579 10.25 5 10.25H10.25V5C10.25 4.58579 10.5858 4.25 11 4.25Z" fill="white"/>
</svg>
