<svg width="24" height="24" viewBox="0 0 24 24" fill="none" xmlns="http://www.w3.org/2000/svg">
<path fill-rule="evenodd" clip-rule="evenodd" d="M15.6177 8.01591L15.6332 7.95326C16.0221 6.38391 15.8683 4.80567 15.1098 3.70944C14.4073 2.69432 12.9411 1.74645 9.90036 1.8927C6.51941 2.05532 4.5837 4.36528 3.49284 7.31893C2.95076 8.78669 2.65651 10.3342 2.52798 11.6648C2.39666 13.0243 2.44894 14.0411 2.52829 14.4532C2.84838 16.116 3.67385 18.2472 5.53797 19.795C7.36148 21.3091 10.4078 22.4542 15.5713 21.742C18.7443 21.3043 20.7048 19.9112 21.6549 18.4859C22.6141 17.0468 22.565 15.6108 21.9026 14.6555C21.2375 13.6962 20.3975 13.4934 19.181 13.2523C19.1671 13.2496 19.1531 13.2468 19.139 13.244C18.7703 13.1711 18.3097 13.0799 17.8815 12.9352C17.4216 12.7798 16.8879 12.5287 16.435 12.0649C15.4674 11.074 15.3567 9.65962 15.6076 8.07966L15.6177 8.01591ZM12.7555 6.61667C12.7555 8.12932 11.5293 9.35556 10.0166 9.35556C8.504 9.35556 7.27776 8.12932 7.27776 6.61667C7.27776 5.10402 8.504 3.87778 10.0166 3.87778C11.5293 3.87778 12.7555 5.10402 12.7555 6.61667ZM9.82776 0.383338C16.6201 0.0566349 18.0104 4.64229 17.1 8.31667C16.6407 11.2086 17.8775 11.4536 19.4747 11.77C20.6847 12.0098 22.1017 12.2905 23.1444 13.7944C25.3101 16.918 22.8152 22.2682 15.7778 23.2389C4.82221 24.75 1.76414 18.4776 1.04443 14.7389C0.572738 12.2886 1.33738 0.791717 9.82776 0.383338ZM11.2444 6.61667C11.2444 7.29475 10.6947 7.84445 10.0166 7.84445C9.33856 7.84445 8.78887 7.29475 8.78887 6.61667C8.78887 5.93859 9.33856 5.38889 10.0166 5.38889C10.6947 5.38889 11.2444 5.93859 11.2444 6.61667Z" fill="#006EEE"/>
</svg>
