<svg width="33" height="24" viewBox="0 0 33 24" fill="none" xmlns="http://www.w3.org/2000/svg">
<path d="M27.5178 18.7779C26.0746 18.7779 24.9067 19.9458 24.9067 21.3889C24.9067 22.8321 26.0746 24 27.5178 24C28.9609 24 30.1288 22.8321 30.1288 21.3889C30.1288 19.9458 28.9609 18.7779 27.5178 18.7779ZM27.5178 22.3891C26.9695 22.3891 26.5176 21.9372 26.5176 21.3889C26.5176 20.8407 26.9695 20.3888 27.5178 20.3888C28.066 20.3888 28.5179 20.8407 28.5179 21.3889C28.5179 21.9372 28.066 22.3891 27.5178 22.3891ZM32.2575 18.9272H31.6927V16.5548C31.6927 15.7193 31.0692 14.9733 30.2241 14.9733H27.5129C27.4559 14.9733 27.3887 14.9661 27.3507 14.9282L23.1255 10.8156C22.9356 10.6257 22.7047 10.4642 22.4293 10.4546H19.3792V20.8477H23.8979C24.0023 20.8477 24.0712 20.7444 24.0901 20.6494C24.375 19.0164 25.7991 17.7726 27.5176 17.7726C29.2362 17.7726 30.6604 19.0164 30.9451 20.6494C30.9641 20.7538 31.0233 20.8477 31.1277 20.8477H31.4666C32.0078 20.8477 32.4832 20.3836 32.4832 19.8519V19.1493C32.4835 19.0447 32.3715 18.9272 32.2575 18.9272ZM25.3665 14.9732H20.7349C20.6209 14.9732 20.5089 14.8612 20.5089 14.7472V11.8102C20.5089 11.6962 20.6209 11.5842 20.7349 11.5842H22.2035C22.2605 11.5842 22.3756 11.6699 22.423 11.708L25.4803 14.6338C25.5943 14.7762 25.547 14.9732 25.3665 14.9732ZM11.0805 18.7762C9.63728 18.7762 8.46942 19.9441 8.46942 21.3873C8.46942 22.8305 9.63728 23.9983 11.0805 23.9983C12.5237 23.9983 13.6915 22.8305 13.6915 21.3873C13.6915 19.9441 12.5237 18.7762 11.0805 18.7762ZM11.0805 22.3873C10.5322 22.3873 10.0803 21.9354 10.0803 21.3871C10.0803 20.8389 10.5322 20.387 11.0805 20.387C11.6287 20.387 12.0806 20.8389 12.0806 21.3871C12.0806 21.9354 11.6287 22.3873 11.0805 22.3873ZM18.5885 13.9235V20.8476H15.078H14.7171C14.6127 20.8202 14.5272 20.7538 14.5083 20.6493C14.2234 19.0162 12.7993 17.8836 11.0807 17.8836C9.3622 17.8836 7.93795 19.0161 7.65321 20.6493C7.63426 20.7442 7.5488 20.8201 7.44439 20.8476H4.91944C4.41324 20.8202 4.0157 20.4098 4.0157 19.9036V16.7807H12.6291C12.2135 16.2941 11.9622 15.6632 11.9622 14.9732C11.9622 14.3327 12.1789 13.7431 12.5422 13.2726C9.66461 9.67054 5.59618 4.70237 4.43335 3.018L3.75158 7.37375L4.44972 7.46475L4.0237 10.7337L3.51247 10.6671C3.50035 10.7442 3.48862 10.8189 3.47754 10.8892C4.4104 11.292 5.03545 12.208 5.03545 13.2413C5.03545 13.374 5.02463 13.508 5.00374 13.6434C4.80304 14.9131 3.71188 15.8184 2.46372 15.8184C2.33108 15.8184 2.19702 15.8076 2.06296 15.7875H2.06244C1.05816 15.6285 0.280234 14.9091 0 13.9992L1.2238 13.6241C1.36598 14.0835 1.75527 14.4459 2.26237 14.5253H2.26173C2.33043 14.5361 2.39772 14.5407 2.46513 14.5407C3.08954 14.5407 3.64382 14.084 3.74217 13.4456C3.75365 13.3762 3.75764 13.3088 3.75764 13.2422C3.75764 12.6178 3.30094 12.0641 2.66313 11.9651C2.49401 11.9388 2.34526 11.8486 2.24484 11.7105C2.1452 11.5725 2.10408 11.4034 2.13037 11.235C2.13037 11.2344 2.18297 10.9027 2.2451 10.5022L1.85169 10.4509L2.27771 7.18194L2.99067 7.27488L3.80211 2.0948C3.73405 1.99309 3.68223 1.91369 3.65736 1.87115C4.0157 1.81508 6.49102 0 6.49102 0C8.89635 2.88935 16.0492 11.0441 18.5885 13.9235Z" fill="white"/>
</svg>
