<svg width="26" height="26" viewBox="0 0 26 26" fill="none" xmlns="http://www.w3.org/2000/svg">
<g clip-path="url(#clip0_443_610)">
<path d="M25.4348 21.6196H0.565218C0.253048 21.6196 0 21.3665 0 21.0543V4.09781C0 3.78564 0.253048 3.53259 0.565218 3.53259H25.4348C25.747 3.53259 26 3.78564 26 4.09781V21.0543C26 21.3665 25.747 21.6196 25.4348 21.6196Z" fill="#07516A"/>
<path d="M14.1305 21.6196H11.8696V3.53259H14.1305V21.6196Z" fill="#041C32"/>
<path d="M24.8695 17.0978V19.9239C24.8695 20.236 24.6164 20.4891 24.3043 20.4891H14.6956C13.7591 20.4891 12.9999 19.7299 12.9999 18.7934C12.9999 19.7299 12.2408 20.4891 11.3043 20.4891H1.69559C1.38342 20.4891 1.13037 20.236 1.13037 19.9239V17.0978H11.3043C12.2408 17.0978 12.9999 17.8569 12.9999 18.7934C12.9999 17.857 13.7591 17.0978 14.6956 17.0978H24.8695Z" fill="#B0C4D9"/>
<path d="M24.8695 2.40213V18.7934H12.9999H1.13037V2.40213C1.13037 2.08996 1.38342 1.83691 1.69559 1.83691H11.3043C12.2408 1.83691 12.9999 2.59606 12.9999 3.53257C12.9999 2.59606 13.7591 1.83691 14.6956 1.83691H24.3043C24.6164 1.83691 24.8695 2.08996 24.8695 2.40213Z" fill="#C9D5E3"/>
<path d="M23.4565 4.09781H16.6738C16.5178 4.09781 16.3912 3.97126 16.3912 3.8152C16.3912 3.65915 16.5178 3.53259 16.6738 3.53259H23.4565C23.6125 3.53259 23.7391 3.65915 23.7391 3.8152C23.7391 3.97126 23.6125 4.09781 23.4565 4.09781ZM23.7391 4.94564C23.7391 4.78958 23.6125 4.66303 23.4565 4.66303H16.6738C16.5178 4.66303 16.3912 4.78958 16.3912 4.94564C16.3912 5.10169 16.5178 5.22825 16.6738 5.22825H23.4565C23.6125 5.22825 23.7391 5.10169 23.7391 4.94564ZM23.7391 6.07607C23.7391 5.92002 23.6125 5.79346 23.4565 5.79346H14.413C14.2569 5.79346 14.1304 5.92002 14.1304 6.07607C14.1304 6.23213 14.2569 6.35868 14.413 6.35868H23.4565C23.6125 6.35868 23.7391 6.23213 23.7391 6.07607ZM22.6086 8.33694C22.6086 8.18089 22.4821 8.05433 22.326 8.05433H14.413C14.2569 8.05433 14.1304 8.18089 14.1304 8.33694C14.1304 8.493 14.2569 8.61955 14.413 8.61955H22.326C22.4821 8.61955 22.6086 8.493 22.6086 8.33694ZM23.7391 9.46738C23.7391 9.31132 23.6125 9.18477 23.4565 9.18477H14.413C14.2569 9.18477 14.1304 9.31132 14.1304 9.46738C14.1304 9.62344 14.2569 9.74999 14.413 9.74999H23.4565C23.6125 9.74999 23.7391 9.62344 23.7391 9.46738ZM23.1738 10.5978C23.1738 10.4418 23.0473 10.3152 22.8912 10.3152H14.413C14.2569 10.3152 14.1304 10.4418 14.1304 10.5978C14.1304 10.7539 14.2569 10.8804 14.413 10.8804H22.8912C23.0473 10.8804 23.1738 10.7539 23.1738 10.5978ZM23.7391 11.7282C23.7391 11.5722 23.6125 11.4456 23.4565 11.4456H14.413C14.2569 11.4456 14.1304 11.5722 14.1304 11.7282C14.1304 11.8843 14.2569 12.0109 14.413 12.0109H23.4565C23.6125 12.0109 23.7391 11.8843 23.7391 11.7282ZM22.6086 12.8587C22.6086 12.7026 22.4821 12.5761 22.326 12.5761H14.413C14.2569 12.5761 14.1304 12.7026 14.1304 12.8587C14.1304 13.0147 14.2569 13.1413 14.413 13.1413H22.326C22.4821 13.1413 22.6086 13.0147 22.6086 12.8587ZM23.7391 13.9891C23.7391 13.8331 23.6125 13.7065 23.4565 13.7065H14.413C14.2569 13.7065 14.1304 13.8331 14.1304 13.9891C14.1304 14.1452 14.2569 14.2717 14.413 14.2717H23.4565C23.6125 14.2717 23.7391 14.1452 23.7391 13.9891ZM23.1738 15.1196C23.1738 14.9635 23.0473 14.8369 22.8912 14.8369H14.413C14.2569 14.8369 14.1304 14.9635 14.1304 15.1196C14.1304 15.2756 14.2569 15.4022 14.413 15.4022H22.8912C23.0473 15.4022 23.1738 15.2756 23.1738 15.1196ZM15.826 4.94564V3.8152C15.826 3.65915 15.6995 3.53259 15.5434 3.53259H14.413C14.2569 3.53259 14.1304 3.65915 14.1304 3.8152V4.94564C14.1304 5.10169 14.2569 5.22825 14.413 5.22825H15.5434C15.6995 5.22825 15.826 5.10169 15.826 4.94564ZM23.4565 17.0978H22.8912C22.7352 17.0978 22.6086 17.2244 22.6086 17.3804C22.6086 17.5365 22.7352 17.663 22.8912 17.663H23.4565C23.6125 17.663 23.7391 17.5365 23.7391 17.3804C23.7391 17.2244 23.6125 17.0978 23.4565 17.0978Z" fill="#576D7E"/>
<path d="M17.5217 19.9239C15.6487 19.9239 14.1304 19.7973 14.1304 19.6413C14.1304 19.4852 15.6487 19.3586 17.5217 19.3586C19.3946 19.3586 20.913 19.4852 20.913 19.6413C20.913 19.7973 19.3946 19.9239 17.5217 19.9239Z" fill="#07516A"/>
<path d="M19.2175 24.163L17.5218 23.5977L15.8262 24.163V19.8673C15.8262 19.7425 15.9274 19.6412 16.0523 19.6412H18.9914C19.1162 19.6412 19.2175 19.7425 19.2175 19.8673V24.163Z" fill="#E80252"/>
<path d="M12.9999 18.7934C12.9999 19.7299 12.2408 20.4891 11.3043 20.4891H1.69559C1.38342 20.4891 1.13037 20.236 1.13037 19.9239V17.0978H11.3043C12.2408 17.0978 12.9999 17.8569 12.9999 18.7934Z" fill="#C9D5E3"/>
<path d="M12.9999 3.53257V18.7934H1.13037V2.40213C1.13037 2.08996 1.38342 1.83691 1.69559 1.83691H11.3043C12.2408 1.83691 12.9999 2.59606 12.9999 3.53257Z" fill="#E2E7F0"/>
<path d="M11.5871 4.09781H4.80447C4.64841 4.09781 4.52186 3.97126 4.52186 3.8152C4.52186 3.65915 4.64841 3.53259 4.80447 3.53259H11.5871C11.7431 3.53259 11.8697 3.65915 11.8697 3.8152C11.8697 3.97126 11.7431 4.09781 11.5871 4.09781ZM11.8697 4.94564C11.8697 4.78958 11.7431 4.66303 11.5871 4.66303H4.80447C4.64841 4.66303 4.52186 4.78958 4.52186 4.94564C4.52186 5.10169 4.64841 5.22825 4.80447 5.22825H11.5871C11.7431 5.22825 11.8697 5.10169 11.8697 4.94564ZM11.8697 6.07607C11.8697 5.92002 11.7431 5.79346 11.5871 5.79346H2.5436C2.38754 5.79346 2.26099 5.92002 2.26099 6.07607C2.26099 6.23213 2.38754 6.35868 2.5436 6.35868H11.5871C11.7431 6.35868 11.8697 6.23213 11.8697 6.07607ZM10.7392 7.20651C10.7392 7.05045 10.6127 6.9239 10.4566 6.9239H2.5436C2.38754 6.9239 2.26099 7.05045 2.26099 7.20651C2.26099 7.36256 2.38754 7.48912 2.5436 7.48912H10.4566C10.6127 7.48912 10.7392 7.36256 10.7392 7.20651ZM11.8697 8.33694C11.8697 8.18089 11.7431 8.05433 11.5871 8.05433H2.5436C2.38754 8.05433 2.26099 8.18089 2.26099 8.33694C2.26099 8.493 2.38754 8.61955 2.5436 8.61955H11.5871C11.7431 8.61955 11.8697 8.493 11.8697 8.33694ZM11.3045 9.46738C11.3045 9.31132 11.1779 9.18477 11.0219 9.18477H2.5436C2.38754 9.18477 2.26099 9.31132 2.26099 9.46738C2.26099 9.62344 2.38754 9.74999 2.5436 9.74999H11.0219C11.1779 9.74999 11.3045 9.62344 11.3045 9.46738ZM11.8697 11.7282C11.8697 11.5722 11.7431 11.4456 11.5871 11.4456H2.5436C2.38754 11.4456 2.26099 11.5722 2.26099 11.7282C2.26099 11.8843 2.38754 12.0109 2.5436 12.0109H11.5871C11.7431 12.0109 11.8697 11.8843 11.8697 11.7282ZM10.7392 12.8587C10.7392 12.7026 10.6127 12.5761 10.4566 12.5761H2.5436C2.38754 12.5761 2.26099 12.7026 2.26099 12.8587C2.26099 13.0147 2.38754 13.1413 2.5436 13.1413H10.4566C10.6127 13.1413 10.7392 13.0147 10.7392 12.8587ZM11.8697 13.9891C11.8697 13.8331 11.7431 13.7065 11.5871 13.7065H2.5436C2.38754 13.7065 2.26099 13.8331 2.26099 13.9891C2.26099 14.1452 2.38754 14.2717 2.5436 14.2717H11.5871C11.7431 14.2717 11.8697 14.1452 11.8697 13.9891ZM11.3045 15.1196C11.3045 14.9635 11.1779 14.8369 11.0219 14.8369H2.5436C2.38754 14.8369 2.26099 14.9635 2.26099 15.1196C2.26099 15.2756 2.38754 15.4022 2.5436 15.4022H11.0219C11.1779 15.4022 11.3045 15.2756 11.3045 15.1196ZM3.95664 4.94564V3.8152C3.95664 3.65915 3.83009 3.53259 3.67403 3.53259H2.5436C2.38754 3.53259 2.26099 3.65915 2.26099 3.8152V4.94564C2.26099 5.10169 2.38754 5.22825 2.5436 5.22825H3.67403C3.83009 5.22825 3.95664 5.10169 3.95664 4.94564ZM3.10881 17.0978H2.5436C2.38754 17.0978 2.26099 17.2244 2.26099 17.3804C2.26099 17.5365 2.38754 17.663 2.5436 17.663H3.10881C3.26487 17.663 3.39142 17.5365 3.39142 17.3804C3.39142 17.2244 3.26487 17.0978 3.10881 17.0978Z" fill="#576D7E"/>
</g>
<defs>
<clipPath id="clip0_443_610">
<rect width="26" height="26" fill="white"/>
</clipPath>
</defs>
</svg>
