<svg width="26" height="16" viewBox="0 0 26 16" fill="none" xmlns="http://www.w3.org/2000/svg">
<path d="M11.655 12.2266H1.34473V14.0196H11.655V12.2266Z" fill="#959CB5"/>
<path d="M13.8965 9.08862H11.2068V12.2265H13.8965V9.08862Z" fill="#959CB5"/>
<path d="M6.18759 1.92175L4.72082 5.95165C4.55146 6.41696 4.79136 6.93142 5.25666 7.10073L20.4214 12.6203C20.8867 12.7897 21.4012 12.5498 21.5705 12.0845L22.1506 10.4907L6.18759 1.92175Z" fill="#C7CFE2"/>
<path d="M13.828 11.7781H11.2755C11.0027 11.7781 10.7932 12.0197 10.8317 12.2897L11.097 14.1462C11.16 14.5879 11.5384 14.916 11.9845 14.916H13.1191C13.5652 14.916 13.9435 14.5879 14.0066 14.1462L14.2719 12.2897C14.3103 12.0197 14.1008 11.7781 13.828 11.7781Z" fill="#D5DCED"/>
<path d="M0.896543 15.8125H0.448297C0.200738 15.8125 0 15.6118 0 15.3642V10.8815C0 10.634 0.200738 10.4332 0.448297 10.4332H0.896594C1.39176 10.4332 1.79314 10.8346 1.79314 11.3298V14.916C1.79309 15.4111 1.39171 15.8125 0.896543 15.8125Z" fill="#D5DCED"/>
<path d="M12.3733 14.1462L12.108 12.2897C12.0695 12.0197 12.279 11.7781 12.5518 11.7781H11.2755C11.0026 11.7781 10.7931 12.0197 10.8317 12.2897L11.097 14.1462C11.16 14.5879 11.5384 14.916 11.9845 14.916H13.119C13.1432 14.916 13.1662 14.9114 13.1899 14.9095C12.7755 14.8764 12.4329 14.564 12.3733 14.1462Z" fill="#C7CFE2"/>
<path d="M0.896543 14.0195H0.448297C0.200738 14.0195 0 13.8187 0 13.5712V15.3643C0 15.6118 0.200738 15.8126 0.448297 15.8126H0.896594C1.39171 15.8126 1.79314 15.4111 1.79314 14.916V13.1229C1.79309 13.618 1.39166 14.0195 0.896543 14.0195Z" fill="#C7CFE2"/>
<path d="M5.33423 4.26673L8.89765 5.56368C9.22062 5.68124 9.51428 5.85694 9.77047 6.08607L12.3399 8.38352C12.7669 8.76534 13.2564 9.0583 13.7947 9.25421L21.5706 12.0844L22.1506 10.4907L6.18766 1.92175L5.33423 4.26673Z" fill="#AFB9D2"/>
<path d="M25.7047 6.9106L6.86713 0.0543162C6.40182 -0.115039 5.88736 0.124851 5.71805 0.59016L4.95146 2.69636C4.86681 2.92904 4.98675 3.18625 5.21943 3.27095L9.20408 4.72122C9.63278 4.87727 10.0278 5.1136 10.3679 5.41778L12.9374 7.71523C13.2775 8.01931 13.6725 8.25574 14.1013 8.41179L22.8119 11.5822C23.0052 11.6526 23.2216 11.5823 23.3368 11.4119L25.923 7.58279C26.0861 7.34107 25.9788 7.01038 25.7047 6.9106Z" fill="#D5DCED"/>
</svg>
