<svg width="25" height="26" viewBox="0 0 25 26" fill="none" xmlns="http://www.w3.org/2000/svg">
<path d="M20.5398 0H4.16016C1.86178 0 0 1.88424 0 4.21034V16.562C0 18.8881 1.86178 20.7723 4.16016 20.7723H4.86774V25.2112C4.86774 25.9121 5.70579 26.2625 6.19256 25.7699L11.1306 20.7723H20.5398C22.8382 20.7723 24.7 18.8881 24.7 16.562V4.21034C24.7 1.88424 22.8382 0 20.5398 0Z" fill="#07516A"/>
<path d="M11.2306 12.4887H13.4297L13.7331 5.22383H10.9272L11.2306 12.4887ZM13.8999 14.976C13.8999 14.1722 13.2781 13.5503 12.3681 13.5503C11.4429 13.5503 10.8211 14.1722 10.8211 14.976C10.8211 15.7495 11.4429 16.3713 12.3681 16.3713C13.2781 16.3713 13.8999 15.7495 13.8999 14.976Z" fill="white"/>
</svg>
