<svg width="26" height="24" viewBox="0 0 26 24" fill="none" xmlns="http://www.w3.org/2000/svg">
<path d="M17.3628 4.76672L2.56967 4.79706C1.15267 4.79706 0 5.94972 0 7.36672V16.5278C0 17.9448 1.15267 19.0971 2.56967 19.0971H5.2V23.4304C5.2 23.6094 5.31007 23.7701 5.47733 23.8347C5.52803 23.8542 5.5809 23.8637 5.63333 23.8637C5.75293 23.8637 5.87037 23.8139 5.954 23.722L10.1591 19.0962L17.3637 19.0667C18.7807 19.0667 19.9333 17.9141 19.9333 16.4975V7.33639C19.9333 5.91939 18.7807 4.76672 17.3628 4.76672ZM4.33333 9.10006H9.96667C10.2063 9.10006 10.4 9.29419 10.4 9.53339C10.4 9.77259 10.2063 9.96672 9.96667 9.96672H4.33333C4.0937 9.96672 3.9 9.77259 3.9 9.53339C3.9 9.29419 4.0937 9.10006 4.33333 9.10006ZM15.6 15.1667H4.33333C4.0937 15.1667 3.9 14.9726 3.9 14.7334C3.9 14.4942 4.0937 14.3001 4.33333 14.3001H15.6C15.8396 14.3001 16.0333 14.4942 16.0333 14.7334C16.0333 14.9726 15.8396 15.1667 15.6 15.1667ZM15.6 12.5667H4.33333C4.0937 12.5667 3.9 12.3726 3.9 12.1334C3.9 11.8942 4.0937 11.7001 4.33333 11.7001H15.6C15.8396 11.7001 16.0333 11.8942 16.0333 12.1334C16.0333 12.3726 15.8396 12.5667 15.6 12.5667Z" fill="#1A99E4"/>
<path d="M23.4309 0.0303334L8.63607 0C7.21907 0 6.06641 1.15267 6.06641 2.56967V3.9234L17.3608 3.9C19.2575 3.9 20.7997 5.44137 20.7997 7.33633V16.4667V16.4974V17.4018L22.2124 18.9557C22.296 19.0476 22.4135 19.0974 22.5331 19.0974C22.5855 19.0974 22.6384 19.0879 22.6891 19.0684C22.8563 19.0038 22.9664 18.8431 22.9664 18.6641V14.3308H23.4301C24.8471 14.3308 25.9997 13.1781 25.9997 11.7615V2.6C25.9997 1.183 24.8471 0.0303334 23.4309 0.0303334Z" fill="#07516A"/>
</svg>
