<svg width="19" height="26" viewBox="0 0 19 26" fill="none" xmlns="http://www.w3.org/2000/svg">
<path d="M1.86247 22.0481C1.86247 22.0481 1.7823 22.2886 1.78014 22.4771C1.77797 22.6656 1.80614 23.0491 2.14413 23.0491C2.5818 23.0491 7.53047 23.0339 9.91597 23.0491C12.3015 23.0643 16.6933 23.0188 17.001 23.0014C17.3086 22.9863 17.2241 22.3038 17.2046 22.0698L1.86247 22.0481Z" fill="#543529"/>
<path d="M17.6638 24.271L18.29 24.7022C18.29 24.7022 18.6952 25.0553 18.7493 25.2677C18.8035 25.48 18.6778 25.883 18.498 25.9675L9.10765 26L0.349988 25.974C0.213488 25.9393 0.0488211 25.8072 0.00765441 25.5645C-0.0335122 25.3218 0.100821 25.051 0.185321 24.882C0.269821 24.713 2.01182 24.2732 2.01182 24.2732L17.6638 24.271Z" fill="#874D36"/>
<path d="M1.12352 23.8203C0.954517 23.8224 0.831017 24.0239 0.729184 24.1561C0.46485 24.4963 0.298017 24.7108 0.187517 24.8819C0.0358505 25.1181 0.339184 25.3218 0.610017 25.3218C0.880851 25.3218 18.6778 25.3478 18.7212 25.2329C18.7797 25.0813 18.433 24.5634 18.147 24.0868C18.0473 23.9199 17.8307 23.6924 17.6357 23.6946L1.12352 23.8203Z" fill="#B88956"/>
<path d="M2.49488 20.9778L1.89255 21.9593C1.78855 22.1283 1.90988 22.3449 2.10921 22.3449L16.9552 22.3363C17.1524 22.3363 17.2737 22.1218 17.174 21.9528L16.5912 20.9756H2.49488V20.9778Z" fill="#A06841"/>
<path d="M5.75133 21.1358L3.9855 25.987H2.91517L2.302 24.8192L4.26067 20.605C4.26067 20.6028 5.84883 20.8217 5.75133 21.1358Z" fill="#88857C"/>
<path d="M1.7561 25.9934C1.7821 25.9024 3.58694 22.1064 3.58694 22.1064C3.6996 21.8702 4.65077 21.9764 4.49694 22.4227C4.3431 22.8691 3.25327 25.9847 3.25327 25.9847L1.7561 25.9934Z" fill="#C8C9C6"/>
<path d="M12.8451 21.1358L14.6196 25.9805L15.6791 25.9783L16.2945 24.8192L14.3358 20.605C14.338 20.6028 12.7476 20.8217 12.8451 21.1358Z" fill="#88857C"/>
<path d="M16.8384 25.974C16.8124 25.883 15.0032 22.0935 15.0032 22.0935C14.8905 21.8573 13.9394 21.9635 14.0932 22.4098L15.3412 25.9783L16.8384 25.974Z" fill="#C8C9C6"/>
<path d="M17.224 20.384C17.2543 20.7545 17.029 21.086 16.7127 21.138C15.6618 21.3048 13.1507 21.6233 9.22901 21.6233C5.33551 21.6233 2.88068 21.3091 1.84285 21.1401C1.52218 21.0881 1.29901 20.7501 1.33368 20.3753L1.32935 16.6616H17.2283L17.224 20.384Z" fill="#82AEC0"/>
<path d="M1.32935 16.6616V17.9746C1.32935 17.9746 5.09501 18.1696 9.27668 18.1696C13.4583 18.1696 17.2262 17.9443 17.2262 17.9443V16.6616H1.32935Z" fill="#546E7A"/>
<path d="M9.24633 17.5045L9.27666 12.2936L1.10833 10.7423L0.965332 15.8166V17.0278C0.965332 17.2206 1.11483 17.3788 1.3055 17.3896C1.99233 17.4308 3.95967 17.5045 9.24633 17.5045Z" fill="#E0E0E0"/>
<path d="M16.4787 0.868833C15.4301 0.442 13.3371 0 9.2789 0C5.22073 0 3.12557 0.442 2.0769 0.868833C1.64573 1.04433 1.36407 1.72467 1.36407 2.197L1.1084 10.7402L3.3899 14.1223L9.2204 16.9412C16.4961 16.9412 17.6336 16.8783 17.6336 16.8783L17.1894 2.197C17.1916 1.72467 16.9099 1.04433 16.4787 0.868833Z" fill="#07516A"/>
<path d="M15.9869 1.17441C15.0054 0.775742 13.0749 0.377075 9.2789 0.377075C5.4829 0.377075 3.55023 0.775742 2.5709 1.17441C2.1679 1.33908 1.90356 1.83091 1.90356 2.27291L1.93823 7.55741C1.94473 8.73174 2.71173 9.76741 3.8319 10.1206L9.4349 12.0164L14.8126 10.1379C15.9349 9.77607 16.6932 8.72741 16.6867 7.54874L16.6521 2.29457C16.6521 1.85258 16.3899 1.33908 15.9869 1.17441Z" fill="#1A99E4"/>
<path d="M15.7745 5.954H9.86816L9.94616 2.34216H15.3347L15.7745 5.954Z" fill="#BAE2FD"/>
<path d="M15.3694 1.93921H10.0437C9.8444 1.93921 9.68623 2.15371 9.69923 2.40721L9.7989 5.91504C9.80973 6.14687 9.9614 6.32671 10.1434 6.32671H15.6359C15.9002 6.32671 16.0952 6.01471 16.0389 5.68538L15.7031 2.28371C15.6706 2.08221 15.5297 1.93921 15.3694 1.93921ZM10.5139 2.53938H14.9447C15.1029 2.53938 15.2394 2.67588 15.2784 2.87088L15.4842 5.17621C15.5406 5.45571 15.3759 5.72654 15.1506 5.72654H10.5724C10.3926 5.72654 10.2431 5.54888 10.2301 5.31921L10.1737 3.01388C10.1564 2.75821 10.3146 2.53938 10.5139 2.53938Z" fill="#37474F"/>
<path d="M2.98682 5.954H8.89315L8.81515 2.34216H3.42665L2.98682 5.954Z" fill="#BAE2FD"/>
<path d="M3.05627 2.28371L2.72044 5.68538C2.6641 6.01471 2.8591 6.32671 3.12344 6.32671H8.61594C8.79794 6.32671 8.94744 6.14687 8.96044 5.91504L9.0601 2.40721C9.0731 2.15371 8.91494 1.93921 8.7156 1.93921H3.3921C3.23177 1.93921 3.09094 2.08221 3.05627 2.28371ZM8.58994 3.01388L8.5336 5.31921C8.5206 5.54888 8.3711 5.72654 8.19127 5.72654H3.60877C3.38344 5.72654 3.21877 5.45571 3.2751 5.17621L3.48094 2.87088C3.51994 2.67588 3.65644 2.53938 3.8146 2.53938H8.24544C8.44694 2.53938 8.6051 2.75821 8.58994 3.01388Z" fill="#37474F"/>
<path d="M13.7164 8.64281C13.4672 8.08598 13.0404 7.87581 12.5919 7.98631C12.1434 8.09681 11.9116 8.53881 11.9787 8.99598C12.0676 9.61781 12.6417 10.231 13.3697 9.88865C13.8421 9.66765 13.9634 9.19315 13.7164 8.64281Z" fill="#01579B"/>
<path d="M12.789 9.47486C13.1635 9.47486 13.4672 9.17124 13.4672 8.7967C13.4672 8.42216 13.1635 8.11853 12.789 8.11853C12.4145 8.11853 12.1108 8.42216 12.1108 8.7967C12.1108 9.17124 12.4145 9.47486 12.789 9.47486Z" fill="#F44336"/>
<path d="M5.04505 8.64281C5.29422 8.08598 5.72105 7.87581 6.16955 7.98631C6.61805 8.09681 6.84989 8.53881 6.78272 8.99598C6.69389 9.61781 6.11972 10.231 5.39172 9.88865C4.91939 9.66765 4.79805 9.19315 5.04505 8.64281Z" fill="#01579B"/>
<path d="M5.97236 9.47486C6.3469 9.47486 6.65052 9.17124 6.65052 8.7967C6.65052 8.42216 6.3469 8.11853 5.97236 8.11853C5.59782 8.11853 5.29419 8.42216 5.29419 8.7967C5.29419 9.17124 5.59782 9.47486 5.97236 9.47486Z" fill="#F44336"/>
<path d="M9.27883 12.2914L1.1105 10.7401L0.965332 15.8166V17.0278C0.965332 17.2206 1.11483 17.3788 1.3055 17.3896C1.99233 17.4308 3.95967 17.5044 9.24633 17.5044H9.27666C9.27666 17.5044 9.7425 16.5598 9.7425 14.9694C9.7425 13.3791 9.27883 12.2914 9.27883 12.2914Z" fill="#E0E0E0"/>
<path d="M9.27905 12.2914L17.4474 10.7401L17.5904 15.8166V17.0278C17.5904 17.2206 17.4409 17.3788 17.2502 17.3896C16.5634 17.4308 14.5961 17.5044 9.30939 17.5044H9.27905V12.2914Z" fill="#BDBDBD"/>
<path opacity="0.2" d="M0.965332 17.0278C0.965332 17.2207 1.11483 17.3788 1.3055 17.3897C1.99233 17.4308 3.95967 17.5045 9.24633 17.5045H9.307C14.5937 17.5045 16.561 17.4308 17.2478 17.3897C17.4385 17.3788 17.588 17.2207 17.588 17.0278V15.8275H0.965332V17.0278Z" fill="#424242"/>
<path d="M2.38228 18.5791C2.31163 18.5721 2.24031 18.5801 2.17292 18.6024C2.10554 18.6247 2.0436 18.661 1.9911 18.7088C1.93861 18.7566 1.89674 18.8149 1.86821 18.8799C1.83967 18.9449 1.8251 19.0151 1.82545 19.0861C1.82545 19.7621 1.83628 20.4988 2.30428 20.6439C2.81995 20.8043 5.71244 20.9646 7.08611 21.0079C7.38511 21.0166 7.62561 20.7674 7.60828 20.4706L7.54328 19.3656C7.5357 19.2381 7.48049 19.1181 7.38859 19.0294C7.29668 18.9407 7.1748 18.8898 7.04711 18.8868C5.34194 18.8586 3.33995 18.6766 2.38228 18.5791Z" fill="#94D1E0"/>
<path d="M14.0955 14.7572C14.7991 14.7572 15.3695 14.1868 15.3695 13.4832C15.3695 12.7796 14.7991 12.2092 14.0955 12.2092C13.3919 12.2092 12.8215 12.7796 12.8215 13.4832C12.8215 14.1868 13.3919 14.7572 14.0955 14.7572Z" fill="#757575"/>
<path d="M14.0954 14.5469C14.6124 14.5469 15.0314 14.1279 15.0314 13.6109C15.0314 13.094 14.6124 12.6749 14.0954 12.6749C13.5785 12.6749 13.1594 13.094 13.1594 13.6109C13.1594 14.1279 13.5785 14.5469 14.0954 14.5469Z" fill="#FFFDE7"/>
<path d="M4.66609 14.7572C5.3697 14.7572 5.94009 14.1868 5.94009 13.4832C5.94009 12.7796 5.3697 12.2092 4.66609 12.2092C3.96248 12.2092 3.39209 12.7796 3.39209 13.4832C3.39209 14.1868 3.96248 14.7572 4.66609 14.7572Z" fill="#9E9E9E"/>
<path d="M4.66598 14.5469C5.18292 14.5469 5.60198 14.1279 5.60198 13.6109C5.60198 13.094 5.18292 12.6749 4.66598 12.6749C4.14904 12.6749 3.72998 13.094 3.72998 13.6109C3.72998 14.1279 4.14904 14.5469 4.66598 14.5469Z" fill="#FFFDE7"/>
<path d="M7.98341 5.72431H6.39525L4.33691 2.53931H5.92725L7.98341 5.72431Z" fill="white"/>
<path d="M14.4248 5.72431H12.8345L10.7783 2.53931H12.3665L14.4248 5.72431Z" fill="white"/>
</svg>
