<svg width="26" height="18" viewBox="0 0 26 18" fill="none" xmlns="http://www.w3.org/2000/svg">
<path d="M19.0938 5.5H17.0625V14.4375H19.0938V5.5Z" fill="#5C546A"/>
<path d="M24.375 15.25H1.625C1.17625 15.25 0.8125 14.8863 0.8125 14.4375V13.625H25.1875V14.4375C25.1875 14.8863 24.8238 15.25 24.375 15.25Z" fill="#5C546A"/>
<path d="M24.9859 7.91003L21.031 2.3962C20.9536 2.30357 20.8394 2.25 20.7188 2.25H19.0938C18.8692 2.25 18.6875 2.4319 18.6875 2.65625V13.625C18.6875 13.8494 18.8692 14.0312 19.0938 14.0312H24.7812C25.4533 14.0312 26 13.4845 26 12.8125V9.11151C26 8.50909 25.5608 8.00743 24.9859 7.91003Z" fill="#FF4F19"/>
<path d="M22.6841 2.65625C23.2087 2.65625 23.6744 2.99191 23.8403 3.48962L24.9859 7.91003C24.9859 7.91003 22.0638 7.31624 21.2032 7.08026C20.6752 6.93554 20.3125 6.45367 20.3125 5.90625V2.65625H22.6841Z" fill="#5C546A"/>
<path d="M16.6562 0.625H1.21875C0.546711 0.625 0 1.17171 0 1.84375V12.8125C0 13.4845 0.546711 14.0312 1.21875 14.0312C1.21875 14.0312 17.2442 14.0312 17.4688 14.0312C17.6933 14.0312 17.875 13.8494 17.875 13.625V1.84375C17.875 1.17171 17.3283 0.625 16.6562 0.625Z" fill="#527991"/>
<path d="M0 12.8125C0 13.4845 0.546711 14.0312 1.21875 14.0312H17.4688C17.6933 14.0312 17.875 13.8494 17.875 13.625V10.7812H0V12.8125Z" fill="#5D647F"/>
<path d="M12.5938 16.0625H9.34375C8.895 16.0625 8.53125 15.6988 8.53125 15.25V14.4375C8.53125 13.9887 8.895 13.625 9.34375 13.625H12.5938C13.0425 13.625 13.4062 13.9887 13.4062 14.4375V15.25C13.4062 15.6988 13.0425 16.0625 12.5938 16.0625Z" fill="#8A8895"/>
<path d="M9.75 15.25C9.64448 15.25 9.53855 15.2051 9.46156 15.1322C9.38818 15.055 9.34375 14.9492 9.34375 14.8437C9.34375 14.738 9.38818 14.6325 9.46156 14.5553C9.61589 14.4049 9.88802 14.4049 10.0384 14.5553C10.1114 14.6325 10.1562 14.738 10.1562 14.8437C10.1562 14.9492 10.1114 15.055 10.0344 15.1322C9.96105 15.2051 9.85552 15.25 9.75 15.25Z" fill="#5C546A"/>
<path d="M24.5781 10.7812C24.2416 10.7812 23.9688 11.0541 23.9688 11.3906C23.9688 11.7272 24.2416 12 24.5781 12H25.1875V10.7812H24.5781Z" fill="#FFD100"/>
<path d="M4.875 17.6875C6.44556 17.6875 7.71875 16.4143 7.71875 14.8438C7.71875 13.2732 6.44556 12 4.875 12C3.30444 12 2.03125 13.2732 2.03125 14.8438C2.03125 16.4143 3.30444 17.6875 4.875 17.6875Z" fill="#5C546A"/>
<path d="M4.875 16.4688C5.77246 16.4688 6.5 15.7412 6.5 14.8438C6.5 13.9463 5.77246 13.2188 4.875 13.2188C3.97754 13.2188 3.25 13.9463 3.25 14.8438C3.25 15.7412 3.97754 16.4688 4.875 16.4688Z" fill="#8A8895"/>
<path d="M21.125 17.6875C22.6956 17.6875 23.9688 16.4143 23.9688 14.8438C23.9688 13.2732 22.6956 12 21.125 12C19.5544 12 18.2812 13.2732 18.2812 14.8438C18.2812 16.4143 19.5544 17.6875 21.125 17.6875Z" fill="#5C546A"/>
<path d="M21.125 16.4688C22.0225 16.4688 22.75 15.7412 22.75 14.8438C22.75 13.9463 22.0225 13.2188 21.125 13.2188C20.2275 13.2188 19.5 13.9463 19.5 14.8438C19.5 15.7412 20.2275 16.4688 21.125 16.4688Z" fill="#8A8895"/>
<path d="M26 10.7812H25.1875V12H26V10.7812Z" fill="white"/>
<path d="M23.9688 2.25H19.0938C18.8694 2.25 18.6875 2.4319 18.6875 2.65625V3.0625H23.9688C24.1933 3.0625 24.375 2.8806 24.375 2.65625C24.375 2.4319 24.1933 2.25 23.9688 2.25Z" fill="#E7001E"/>
</svg>
