<svg width="25" height="26" viewBox="0 0 25 26" fill="none" xmlns="http://www.w3.org/2000/svg">
<path d="M23.562 0H4.87493C4.42603 0 4.06243 0.363591 4.06243 0.812494V23.9682C4.06243 25.0899 3.15285 25.9994 2.03125 25.9994H22.3433C23.4649 25.9994 24.3745 25.0898 24.3745 23.9682V0.812494C24.3745 0.363591 24.0105 0 23.562 0Z" fill="#E2E7F0"/>
<path d="M0.812494 7.31226C0.363591 7.31226 0 7.67585 0 8.12475V23.9681C0 25.0898 0.909587 25.9993 2.03118 25.9993C3.15278 25.9993 4.06237 25.0897 4.06237 23.9681V7.31226H0.812494Z" fill="#C9D5E3"/>
<path d="M6.0935 8.93726H12.9996C13.2239 8.93726 13.4058 9.11925 13.4058 9.3435V14.2184C13.4058 14.4427 13.2239 14.6247 12.9996 14.6247H6.0935C5.86925 14.6247 5.68726 14.4427 5.68726 14.2184V9.3435C5.68726 9.11925 5.86885 8.93726 6.0935 8.93726Z" fill="#F8BF00"/>
<path d="M6.0935 16.6559H8.93718C9.16143 16.6559 9.34343 16.8379 9.34343 17.0621V21.937C9.34343 22.1613 9.16143 22.3433 8.93718 22.3433H6.0935C5.86925 22.3433 5.68726 22.1613 5.68726 21.937V17.0621C5.68726 16.8379 5.86885 16.6559 6.0935 16.6559Z" fill="#1A99E4"/>
<path d="M19.4995 16.656H22.3432C22.5674 16.656 22.7494 16.838 22.7494 17.0623V21.9372C22.7494 22.1614 22.5674 22.3434 22.3432 22.3434H19.4995C19.2753 22.3434 19.0933 22.1614 19.0933 21.9372V17.0623C19.0933 16.838 19.2749 16.656 19.4995 16.656Z" fill="#1A99E4"/>
<path d="M18.2809 9.74975H15.031C14.8068 9.74975 14.6248 9.56775 14.6248 9.3435C14.6248 9.11925 14.8068 8.93726 15.031 8.93726H18.2809C18.5052 8.93726 18.6872 9.11925 18.6872 9.3435C18.6872 9.56775 18.5052 9.74975 18.2809 9.74975Z" fill="#07516A"/>
<path d="M22.3433 11.3748H15.031C14.8068 11.3748 14.6248 11.1928 14.6248 10.9685C14.6248 10.7443 14.8068 10.5623 15.031 10.5623H22.3433C22.5676 10.5623 22.7496 10.7443 22.7496 10.9685C22.7496 11.1928 22.5676 11.3748 22.3433 11.3748Z" fill="#576D7E"/>
<path d="M22.3431 6.49987H6.0935C5.86925 6.49987 5.68726 6.31787 5.68726 6.09363C5.68726 5.86938 5.86925 5.68738 6.0935 5.68738H22.3431C22.5674 5.68738 22.7494 5.86938 22.7494 6.09363C22.7494 6.31787 22.5674 6.49987 22.3431 6.49987Z" fill="#C9D5E3"/>
<path d="M22.3433 12.9998H15.031C14.8068 12.9998 14.6248 12.8178 14.6248 12.5935C14.6248 12.3693 14.8068 12.1873 15.031 12.1873H22.3433C22.5676 12.1873 22.7496 12.3693 22.7496 12.5935C22.7496 12.8178 22.5676 12.9998 22.3433 12.9998Z" fill="#576D7E"/>
<path d="M22.3433 14.6248H15.031C14.8068 14.6248 14.6248 14.4428 14.6248 14.2185C14.6248 13.9943 14.8068 13.8123 15.031 13.8123H22.3433C22.5676 13.8123 22.7496 13.9943 22.7496 14.2185C22.7496 14.4428 22.5676 14.6248 22.3433 14.6248Z" fill="#576D7E"/>
<path d="M13.8122 17.4684H10.9685C10.7443 17.4684 10.5623 17.2864 10.5623 17.0621C10.5623 16.8379 10.7443 16.6559 10.9685 16.6559H13.8122C14.0364 16.6559 14.2184 16.8379 14.2184 17.0621C14.2184 17.2864 14.0364 17.4684 13.8122 17.4684Z" fill="#07516A"/>
<path d="M17.4684 19.0934H10.9685C10.7443 19.0934 10.5623 18.9114 10.5623 18.6871C10.5623 18.4629 10.7443 18.2809 10.9685 18.2809H17.4684C17.6926 18.2809 17.8746 18.4629 17.8746 18.6871C17.8746 18.9114 17.6926 19.0934 17.4684 19.0934Z" fill="#576D7E"/>
<path d="M17.4684 20.7184H10.9685C10.7443 20.7184 10.5623 20.5364 10.5623 20.3121C10.5623 20.0879 10.7443 19.9059 10.9685 19.9059H17.4684C17.6926 19.9059 17.8746 20.0879 17.8746 20.3121C17.8746 20.5364 17.6926 20.7184 17.4684 20.7184Z" fill="#576D7E"/>
<path d="M17.4684 22.3433H10.9685C10.7443 22.3433 10.5623 22.1613 10.5623 21.937C10.5623 21.7128 10.7443 21.5308 10.9685 21.5308H17.4684C17.6926 21.5308 17.8746 21.7128 17.8746 21.937C17.8746 22.1613 17.6926 22.3433 17.4684 22.3433Z" fill="#576D7E"/>
<path d="M23.562 1.62499V23.9682C23.562 24.6414 23.0164 25.187 22.3432 25.187H6.43085C5.14427 25.2199 3.87114 25.46 2.66093 25.8979C2.45781 25.9653 2.24494 25.9995 2.03125 25.9995H22.3433C23.4649 25.9995 24.3745 25.0899 24.3745 23.9683V0.8125C23.9256 0.8125 23.562 1.17609 23.562 1.62499Z" fill="#C9D5E3"/>
<path d="M10.1559 12.9997C8.76656 13.3044 7.75099 11.4438 6.906 10.9685C6.51844 10.7939 6.07482 10.7939 5.68726 10.9685V14.2185C5.68726 14.4427 5.86925 14.6247 6.0935 14.6247H12.9996C13.2239 14.6247 13.4058 14.4427 13.4058 14.2185V11.326C12.4147 11.3748 11.3747 12.7316 10.1559 12.9997Z" fill="#F19920"/>
<path d="M8.53124 2.03124C8.50199 1.9045 8.5808 1.77775 8.70755 1.7485C8.72949 1.74322 8.75224 1.74159 8.77499 1.74281C8.88915 1.73753 8.99802 1.79115 9.06343 1.885L10.4122 3.57087V1.99869C10.4134 1.85366 10.5239 1.73301 10.6681 1.71838C10.8204 1.72773 10.9427 1.84676 10.9565 1.99869V4.28988C10.9634 4.42353 10.872 4.54256 10.7412 4.57019C10.6153 4.57628 10.4938 4.52388 10.4122 4.428L9.06343 2.71775V4.28993C9.07927 4.42805 8.97974 4.55277 8.84162 4.56861C8.83024 4.56983 8.81886 4.57024 8.80749 4.57024C8.65962 4.57471 8.53571 4.45852 8.53124 4.31065C8.53084 4.30374 8.53124 4.29683 8.53124 4.28993V2.03124Z" fill="#576D7E"/>
<path d="M11.895 4.57018C11.7581 4.57261 11.6455 4.46333 11.6431 4.32643C11.6431 4.32358 11.6431 4.32115 11.6431 4.3183V2.00676C11.6407 1.86985 11.7499 1.75732 11.8869 1.75488C11.8897 1.75488 11.8921 1.75488 11.895 1.75488H13.3575C13.5033 1.75488 13.6215 1.8731 13.6215 2.01894C13.6215 2.16479 13.5033 2.283 13.3575 2.283C13.3575 2.283 13.3575 2.283 13.3571 2.283H12.1871V2.89237H13.2149C13.3619 2.87409 13.4956 2.9785 13.5139 3.12556C13.5322 3.27262 13.4277 3.40628 13.2807 3.42456C13.2588 3.4274 13.2368 3.4274 13.2149 3.42456H12.1871V4.03393H13.4058C13.5529 4.01565 13.6865 4.12005 13.7048 4.26711C13.7231 4.41418 13.6187 4.54783 13.4716 4.56611C13.4497 4.56896 13.4277 4.56896 13.4058 4.56611H11.8946V4.57018H11.895Z" fill="#576D7E"/>
<path d="M17.062 3.59928L17.6673 1.92153C17.6977 1.77893 17.8379 1.68793 17.9805 1.7184C18.1231 1.74887 18.2141 1.88903 18.1836 2.03162C18.1787 2.05559 18.1702 2.07874 18.1588 2.10027L17.3463 4.28583C17.2732 4.51739 17.2041 4.58646 17.066 4.58646C16.934 4.57427 16.8247 4.47961 16.7938 4.35083L16.087 2.72584L15.437 4.32646C15.4122 4.47068 15.294 4.58036 15.1485 4.59458C15.0023 4.57874 14.8861 4.46418 14.8682 4.31833L14.0679 2.10027C14.0184 1.96215 14.0903 1.81062 14.2284 1.76106C14.3665 1.7115 14.518 1.7834 14.5676 1.92153L15.1688 3.59928L15.8879 1.92153C15.9172 1.79478 16.0439 1.71596 16.1707 1.74521C16.2584 1.76553 16.3267 1.83378 16.347 1.92153L17.062 3.59928Z" fill="#576D7E"/>
<path d="M18.5694 2.36434C18.6628 1.57622 19.8572 1.43404 20.4177 1.86466C20.5298 1.93656 20.5628 2.08566 20.4908 2.19778C20.4189 2.3099 20.2699 2.34281 20.1577 2.2709C19.8571 2.07997 19.1746 1.99059 19.0893 2.41309C18.9796 3.07934 20.7508 2.69746 20.7143 3.78214C20.6777 4.86682 19.1868 4.84245 18.6262 4.37526C18.5035 4.27573 18.4788 4.0982 18.5694 3.96902C18.6478 3.86258 18.7977 3.83942 18.9045 3.91783C18.9138 3.92474 18.9224 3.93246 18.9309 3.94058C19.264 4.16808 20.1253 4.34683 20.1862 3.76183C20.1374 3.16059 18.4434 3.52215 18.5694 2.36434Z" fill="#576D7E"/>
<path d="M4.06242 8.12476C3.61352 8.12476 3.24993 8.48835 3.24993 8.93725V21.937C3.24993 23.2833 2.15875 24.3744 0.812496 24.3744C0.532186 24.3744 0.304688 24.6019 0.304688 24.8822C0.304688 24.9919 0.340437 25.0991 0.406249 25.1869C1.07899 26.0847 2.35212 26.2667 3.24993 25.5939C3.64805 25.2958 3.92267 24.8619 4.0218 24.3744C4.05389 24.2139 4.0673 24.0502 4.06242 23.8869V8.12476Z" fill="#B0C4D9"/>
</svg>
