<svg width="33" height="33" viewBox="0 0 33 33" fill="none" xmlns="http://www.w3.org/2000/svg">
<circle cx="16.5" cy="16.5" r="16.5" fill="#1A99E4"/>
<path d="M8.52102 23.8575C8.51396 23.853 8.50696 23.8484 8.50002 23.8439L8.5 22.5082C8.74596 22.1747 8.99298 22.0061 9.26369 21.8213C9.3403 21.769 9.4188 21.7155 9.49972 21.6565C9.69791 21.512 9.91453 21.3269 10.0711 21.0414C10.228 20.7555 10.2994 20.4165 10.2994 20V14.6433C10.2994 11.9463 12.2852 9.61753 15.0734 8.86064L15.4424 8.76046V8.3781V7.75194C15.4424 7.0807 16.0502 6.5 17 6.5C17.9496 6.5 18.5569 7.0805 18.5569 7.75194V8.3781V8.76047L18.9259 8.86064C21.7141 9.61753 23.6999 11.9463 23.6999 14.6433V20C23.6999 20.4164 23.7713 20.7554 23.9281 21.0414C24.0847 21.3269 24.3013 21.512 24.4996 21.6565C24.5806 21.7156 24.6592 21.7692 24.736 21.8216C25.0067 22.0063 25.2538 22.1749 25.5 22.5084L25.5 23.8798C25.4911 23.8851 25.4818 23.8905 25.4721 23.8958C25.4294 23.9194 25.3892 23.9372 25.3583 23.948C25.3493 23.9512 25.3424 23.9532 25.3376 23.9545H8.69291C8.68898 23.9528 8.68462 23.9508 8.6798 23.9485C8.63685 23.928 8.5815 23.8961 8.52102 23.8575ZM15.2849 25.5909H18.7151C18.2747 26.1632 17.6563 26.5 17 26.5C16.3437 26.5 15.7253 26.1632 15.2849 25.5909Z" fill="white" stroke="white"/>
</svg>
