<svg width="18" height="20" viewBox="0 0 18 20" fill="none" xmlns="http://www.w3.org/2000/svg">
<path fill-rule="evenodd" clip-rule="evenodd" d="M8.61103 1.5H9.38894C12.3969 1.5 14.6185 4.30498 13.9296 7.23299C13.8304 7.65449 13.8768 8.09714 14.0611 8.48893L15.4961 11.5382C15.6122 11.7849 15.6724 12.0543 15.6724 12.3271C15.6724 13.0904 15.2362 13.6002 14.7162 13.7281C13.3973 14.0525 11.437 14.3908 8.99999 14.3908C6.56302 14.3908 4.60271 14.0525 3.28376 13.7281C2.76378 13.6002 2.32758 13.0904 2.32758 12.3271C2.32758 12.0543 2.38779 11.7849 2.50392 11.5382L3.93885 8.48893C4.12322 8.09714 4.1696 7.65449 4.07042 7.23299C3.38148 4.30498 5.60306 1.5 8.61103 1.5ZM2.61029 7.57655C1.69981 3.70698 4.63579 0 8.61103 0H9.38894C13.3642 0 16.3002 3.70698 15.3897 7.57655C15.3681 7.6684 15.3782 7.76486 15.4184 7.85023L16.8533 10.8995C17.0634 11.346 17.1724 11.8335 17.1724 12.3271C17.1724 13.6636 16.3724 14.8655 15.0744 15.1847C13.6567 15.5334 11.5753 15.8908 8.99999 15.8908C6.42467 15.8908 4.34325 15.5334 2.92553 15.1847C1.62763 14.8655 0.827576 13.6636 0.827576 12.3271C0.827576 11.8335 0.936542 11.346 1.1467 10.8995L2.58162 7.85023C2.6218 7.76486 2.63191 7.6684 2.61029 7.57655ZM7.36138 17.7563C7.13793 17.4076 6.67405 17.306 6.32528 17.5294C5.97651 17.7529 5.87491 18.2167 6.09837 18.5655C6.25667 18.8126 6.48808 19.0363 6.77923 19.2246C7.07039 19.4128 7.41628 19.5623 7.79735 19.6643C8.17843 19.7664 8.58711 19.819 8.99999 19.819C9.41287 19.819 9.82154 19.7664 10.2026 19.6643C10.5837 19.5623 10.9296 19.4128 11.2208 19.2246C11.5119 19.0363 11.7433 18.8126 11.9016 18.5655C12.1251 18.2167 12.0235 17.7529 11.6747 17.5294C11.3259 17.306 10.862 17.4076 10.6386 17.7563C10.6154 17.7925 10.5505 17.8717 10.4064 17.9649C10.263 18.0576 10.0647 18.1484 9.81461 18.2154C9.56572 18.282 9.28782 18.319 8.99999 18.319C8.71216 18.319 8.43426 18.282 8.18537 18.2154C7.93526 18.1484 7.73695 18.0576 7.59362 17.9649C7.44951 17.8717 7.38459 17.7925 7.36138 17.7563Z" fill="#082431"/>
</svg>
