<svg width="16" height="16" viewBox="0 0 16 16" fill="none" xmlns="http://www.w3.org/2000/svg">
<path d="M16 8C16 12.4183 12.4183 16 8 16C3.58172 16 0 12.4183 0 8C0 3.58172 3.58172 0 8 0C12.4183 0 16 3.58172 16 8Z" fill="#F8BF00"/>
<path d="M9.23281 10.25L11.1103 7.75L13 10.25H11.75V10.875C11.75 11.9091 10.9091 12.75 9.875 12.75H6.125C5.09094 12.75 4.25 11.9091 4.25 10.875V10.25H5.5V10.875C5.5 11.2194 5.78062 11.5 6.125 11.5H9.875C10.2194 11.5 10.5 11.2194 10.5 10.875V10.25H9.23281Z" fill="white"/>
<path d="M6.76719 6.5L4.88969 9L3 6.5H4.25V5.875C4.25 4.84094 5.09094 4 6.125 4H9.875C10.9091 4 11.75 4.84094 11.75 5.875V6.5H10.5V5.875C10.5 5.53062 10.2194 5.25 9.875 5.25H6.125C5.78062 5.25 5.5 5.53062 5.5 5.875V6.5H6.76719Z" fill="white"/>
</svg>
