<svg width="16" height="16" viewBox="0 0 16 16" fill="none" xmlns="http://www.w3.org/2000/svg">
<path d="M16 8C16 12.4183 12.4183 16 8 16C3.58172 16 0 12.4183 0 8C0 3.58172 3.58172 0 8 0C12.4183 0 16 3.58172 16 8Z" fill="#1AB192"/>
<path d="M12.7071 5.70841L7.43167 10.9835C7.04102 11.3742 6.40732 11.3742 6.0163 10.9835L3.2931 8.26006C2.9023 7.86933 2.9023 7.23556 3.2931 6.84476C3.68397 6.45389 4.31762 6.45389 4.70832 6.84461L6.7242 8.86052L11.2916 4.29304C11.6825 3.90217 12.3162 3.90247 12.7069 4.29304C13.0977 4.68384 13.0977 5.31739 12.7071 5.70841Z" fill="white"/>
</svg>
