<svg width="32" height="32" viewBox="0 0 32 32" fill="none" xmlns="http://www.w3.org/2000/svg">
<rect width="32" height="32" rx="8" fill="#1A99E4"/>
<path d="M13.2747 16.8752C13.2753 16.9185 13.2716 16.9618 13.2635 17.0046C13.1864 17.4121 12.7387 17.6889 12.2634 17.6228C11.8257 17.5511 11.5146 17.216 11.5312 16.8341L11.5312 9.49246L8.68054 12.154C8.37747 12.4262 7.88997 12.472 7.52546 12.2624C7.49536 12.2426 7.46684 12.2212 7.43998 12.1983C7.09909 11.9067 7.09835 11.4333 7.43826 11.141L11.7971 7.40286L11.7977 7.40228C12.1384 7.11047 12.6903 7.11073 13.0306 7.40286L17.3893 11.141C17.4163 11.165 17.4414 11.1906 17.4644 11.2175C17.7488 11.5507 17.6645 12.0185 17.276 12.2624C16.9115 12.472 16.424 12.4262 16.1209 12.154L13.2747 9.50368L13.2747 16.8752Z" fill="white"/>
<path d="M20.4573 15.1248C20.4579 15.0815 20.4542 15.0382 20.4461 14.9954C20.369 14.5879 19.9213 14.3111 19.4461 14.3772C19.0083 14.4489 18.6972 14.784 18.7138 15.1659L18.7138 22.5075L15.8632 19.846C15.5601 19.5738 15.0726 19.528 14.7081 19.7376C14.678 19.7574 14.6495 19.7788 14.6226 19.8017C14.2817 20.0933 14.281 20.5667 14.6209 20.859L18.9797 24.5971L18.9804 24.5977C19.321 24.8895 19.8729 24.8893 20.2132 24.5971L24.572 20.859C24.5989 20.835 24.624 20.8094 24.647 20.7825C24.9314 20.4493 24.8471 19.9815 24.4586 19.7376C24.0941 19.528 23.6066 19.5738 23.3036 19.846L20.4573 22.4963L20.4573 15.1248Z" fill="white"/>
</svg>
